<svg xmlns="http://www.w3.org/2000/svg" width="430" height="430" style="width:100%;height:100%;transform:translate3d(0,0,0);content-visibility:visible" viewBox="0 0 430 430"><defs><clipPath id="a"><path d="M0 0h430v430H0z"/></clipPath><clipPath id="f"><path d="M0 0h430v430H0z"/></clipPath><clipPath id="e"><path d="M0 0h430v430H0z"/></clipPath><clipPath id="d"><path d="M0 0h430v430H0z"/></clipPath><clipPath id="c"><path d="M0 0h430v430H0z"/></clipPath><clipPath id="b"><path d="M0 0h430v430H0z"/></clipPath></defs><g fill="none" clip-path="url(#a)"><g clip-path="url(#b)" style="display:none"><g style="display:none"><path class="primary"/><path class="secondary"/></g><g style="display:none"><path class="primary"/><path class="secondary"/><path class="primary"/></g></g><g clip-path="url(#c)" style="display:none"><g style="display:none"><path class="primary"/><path class="secondary"/></g><g style="display:none"><path class="primary"/><path class="secondary"/><path class="primary"/></g></g><g clip-path="url(#d)" style="display:none"><g style="display:none"><path class="primary"/><path class="secondary"/></g><g style="display:none"><path class="primary"/><path class="secondary"/><path class="primary"/></g></g><g stroke="#FFF" stroke-linecap="round" stroke-linejoin="round" stroke-width="12" clip-path="url(#e)" style="display:block"><g style="display:block"><path d="M276.408 138.181v3.135l-.002 30.454c-.001 33.806-27.416 61.218-61.222 61.216h-1.494c-33.806-.002-61.217-27.416-61.216-61.222l.002-30.028" class="primary"/><path d="M276.408 141.315s2.618-39.608-37.986-60.784c0 0-12.396 46.022-89.846 62.057 0 0-26.55-78.194 6.61-97.182 3.716-2.127 9.812-1.91 13.416.399 5.06 3.24 10.136 8.52 13.336 11.245 2.429 2.069 5.54 3.17 8.728 3.015 4.393-.215 10.477-1.474 16.483-4.695 48.053-19.097 76.825 2.885 76.237 31.39-.546 26.528 2.488 48.577-6.978 54.555" class="secondary"/></g><g style="display:block"><path d="M180.871 223.457v19.742c0 17.469 14.168 31.636 31.637 31.636H215c17.469 0 31.637-14.167 31.637-31.636v-18.902" class="primary"/><path d="M247.633 327.762q0 0 0 0c0-10.129 1.036-18.341 2.313-18.341h.244c.546.017 2.38 1.34 6.007 5.086q9.748-9.528 19.492 0c3.627-3.746 5.461-5.069 6.007-5.086h.244c1.277 0 2.313 8.212 2.313 18.341q0 0 0 0v-1.111 2.242c0 8.943-7.249 16.192-16.192 16.192h-4.235c-8.943 0-16.192-7.249-16.192-16.192v-2.242" class="secondary"/><path d="m249.128 243.199 8.968.498c43.48 0 78.719 35.239 78.719 78.719v31.512c0 8.459-6.861 15.32-15.32 15.32h-19.431c-38.487 2.989-37.994 16.815-70.166 16.815h-33.796c-32.172 0-31.679-13.826-70.166-16.815h-19.43c-8.459 0-15.321-6.861-15.321-15.32v-31.512c0-43.48 35.239-78.719 78.719-78.719l8.968-.498" class="primary"/></g></g><g clip-path="url(#f)" style="display:none"><g style="display:none"><path class="primary"/><path class="secondary"/></g><g style="display:none"><path class="primary"/><path class="secondary"/><path class="primary"/></g></g></g></svg>